<?xml version="1.0" encoding="UTF-8" standalone="no"?>
<svg
   xmlns:dc="http://purl.org/dc/elements/1.1/"
   xmlns:cc="http://creativecommons.org/ns#"
   xmlns:rdf="http://www.w3.org/1999/02/22-rdf-syntax-ns#"
   xmlns:svg="http://www.w3.org/2000/svg"
   xmlns="http://www.w3.org/2000/svg"
   xmlns:sodipodi="http://sodipodi.sourceforge.net/DTD/sodipodi-0.dtd"
   xmlns:inkscape="http://www.inkscape.org/namespaces/inkscape"
   width="24"
   height="24"
   viewBox="0 0 24 24"
   id="svg2"
   version="1.1"
   inkscape:version="0.91 r13725"
   sodipodi:docname="ic_car_24px.svg">
  <metadata
     id="metadata12">
    <rdf:RDF>
      <cc:Work
         rdf:about="">
        <dc:format>image/svg+xml</dc:format>
        <dc:type
           rdf:resource="http://purl.org/dc/dcmitype/StillImage" />
        <dc:title></dc:title>
      </cc:Work>
    </rdf:RDF>
  </metadata>
  <defs
     id="defs10" />
  <sodipodi:namedview
     pagecolor="#ffffff"
     bordercolor="#666666"
     borderopacity="1"
     objecttolerance="10"
     gridtolerance="10"
     guidetolerance="10"
     inkscape:pageopacity="0"
     inkscape:pageshadow="2"
     inkscape:window-width="1440"
     inkscape:window-height="878"
     id="namedview8"
     showgrid="false"
     inkscape:zoom="9.8333333"
     inkscape:cx="12"
     inkscape:cy="12"
     inkscape:window-x="1912"
     inkscape:window-y="-8"
     inkscape:window-maximized="1"
     inkscape:current-layer="svg2" />
  <path
     d="M0 0h24v24h-24z"
     fill="none"
     id="path6" />
  <path
     inkscape:connector-curvature="0"
     d="M 18.92,5.0100005 C 18.72,4.42 18.16,4 17.5,4 L 6.5,4 C 5.84,4 5.29,4.42 5.08,5.0100005 L 3,11 3,19 c 0,0.55 0.45,1 1,1 l 1,0 c 0.55,0 1,-0.45 1,-1 l 0,-1 12,0 0,1 c 0,0.55 0.45,1 1,1 l 1,0 c 0.55,0 1,-0.45 1,-1 L 21,11 18.92,5.0100005 Z M 6.5,15 C 5.67,15 5,14.33 5,13.5 5,12.67 5.67,12 6.5,12 7.33,12 8,12.67 8,13.5 8,14.33 7.33,15 6.5,15 Z m 11,0 C 16.67,15 16,14.33 16,13.5 16,12.67 16.67,12 17.5,12 18.33,12 19,12.67 19,13.5 19,14.33 18.33,15 17.5,15 Z M 5,10 6.5,5.5000005 l 11,0 L 19,10 5,10 Z"
     id="path4" />
</svg>
