<?xml version="1.0" encoding="UTF-8" standalone="no"?>
<svg
   xmlns:dc="http://purl.org/dc/elements/1.1/"
   xmlns:cc="http://creativecommons.org/ns#"
   xmlns:rdf="http://www.w3.org/1999/02/22-rdf-syntax-ns#"
   xmlns:svg="http://www.w3.org/2000/svg"
   xmlns="http://www.w3.org/2000/svg"
   xmlns:sodipodi="http://sodipodi.sourceforge.net/DTD/sodipodi-0.dtd"
   xmlns:inkscape="http://www.inkscape.org/namespaces/inkscape"
   width="24"
   height="24"
   viewBox="0 0 24 24"
   id="svg2"
   version="1.1"
   inkscape:version="0.91 r13725"
   sodipodi:docname="ic_person_24pxV2.svg">
  <metadata
     id="metadata12">
    <rdf:RDF>
      <cc:Work
         rdf:about="">
        <dc:format>image/svg+xml</dc:format>
        <dc:type
           rdf:resource="http://purl.org/dc/dcmitype/StillImage" />
        <dc:title></dc:title>
      </cc:Work>
    </rdf:RDF>
  </metadata>
  <defs
     id="defs10" />
  <sodipodi:namedview
     pagecolor="#ffffff"
     bordercolor="#666666"
     borderopacity="1"
     objecttolerance="10"
     gridtolerance="10"
     guidetolerance="10"
     inkscape:pageopacity="0"
     inkscape:pageshadow="2"
     inkscape:window-width="1440"
     inkscape:window-height="878"
     id="namedview8"
     showgrid="false"
     inkscape:zoom="9.8333333"
     inkscape:cx="12"
     inkscape:cy="12"
     inkscape:window-x="1912"
     inkscape:window-y="-8"
     inkscape:window-maximized="1"
     inkscape:current-layer="svg2" />
  <path
     d="M0 0h24v24h-24z"
     fill="none"
     id="path6" />
  <path
     d="m 20.39548,4.6271191 -16.0451975,0 c -0.8824859,0 -1.6045198,0.7220339 -1.6045198,1.6045198 l 0,11.2316381 c 0,0.882486 0.7220339,1.60452 1.6045198,1.60452 l 16.0451975,0 c 0.882485,0 1.596497,-0.722034 1.596497,-1.60452 l 0.008,-11.2316381 c 0,-0.8824859 -0.722034,-1.6045198 -1.604519,-1.6045198 z M 9.1638418,7.0338988 c 1.3317512,0 2.4067792,1.0750282 2.4067792,2.4067796 0,1.3317516 -1.075028,2.4067796 -2.4067792,2.4067796 -1.3317514,0 -2.4067797,-1.075028 -2.4067797,-2.4067796 0,-1.3317514 1.0750283,-2.4067796 2.4067797,-2.4067796 z m 4.8135582,9.6271182 -9.6271175,0 0,-0.80226 c 0,-1.604519 3.2090395,-2.487005 4.8135593,-2.487005 1.6045192,0 4.8135582,0.882486 4.8135582,2.487005 z"
     id="path6-6"
     inkscape:connector-curvature="0"
     sodipodi:nodetypes="ssssssccssssssccsssc" />
</svg>
